@startuml

abstract class AbstractList
abstract AbstractCollection
interface List
interface Collection

List <|-- AbstractList
Collection <|-- AbstractCollection

Collection <|- List
AbstractCollection <|- AbstractList
AbstractList <|-- ArrayList

class ArrayList {
Object[] elementData
size()
}

enum TimeUnit {
DAYS
HOURS
MINUTES
}

@enduml

@startuml

Class01 <|-- Class02:泛化
Class03 <-- Class04:关联
Class05 *-- Class06:组合
Class07 o-- Class08:聚合
Class09 -- Class10

@enduml